<svg xmlns="http://www.w3.org/2000/svg" viewBox="0 0 100 100"><defs><style>.cls-1{fill:none;stroke:#344154;stroke-linecap:round;stroke-linejoin:round;stroke-width:1.5px;}.cls-2{fill:#91cb55;}</style></defs><title>icon_vertical_ creative</title><g id="Layer_1" data-name="Layer 1"><path class="cls-1" d="M44.4,29.46c-1.26.36-2.52.78-3.77,1.26C21.89,38,11.58,56.48,17.61,72.08S44.26,95.73,62.45,87.21c14.73-6.9,21.19-15.27,23.61-22.89,2-6.37-5.79-11.24-10.55-6.55a47.33,47.33,0,0,1-5.61,4.71,5.26,5.26,0,0,1-6.85-.6h0a5.3,5.3,0,0,1,.13-7.51l.63-.61"/><polyline class="cls-1" points="70.46 62.08 41.63 26 46.11 22.48 74.29 58.93"/><path class="cls-1" d="M83.21,70.48l4.57,5.9a2.3,2.3,0,0,1-.4,3.21h0a2.3,2.3,0,0,1-3.22-.37l-3.83-4.8"/><path class="cls-1" d="M46.11,22.48S53.36,10.13,29.74,6.26C27.91,30.13,41.63,26,41.63,26"/><path class="cls-2" d="M42.89,16.55l0,0c-.66-1.41-2.76-3.78-9.39-5.49a30.6,30.6,0,0,0,.29,3.92c5.22,1.34,6.87,3.21,7.39,4.32v0a2.77,2.77,0,0,1,.09,2l.47-.37A3.71,3.71,0,0,0,42.89,16.55Z"/><path class="cls-1" d="M70.05,46.62s1.34-2.07,1.76-2.77a10,10,0,0,0-6.14-14.77A37.58,37.58,0,0,0,58,27.88"/><path class="cls-2" d="M57.55,65.3s-8.43-1.57-8.65,4,2.68.89-.23,5.59,4.8,7.6,8.88,2.46S65.54,70,57.55,65.3Z"/><path class="cls-2" d="M32.85,57.78c-.05-8.2-7.42,9.41-3.72,11.81s10.25.73,11.11,0,6.65-9.71,2.3-10.47S32.87,61.67,32.85,57.78Z"/><path class="cls-2" d="M44.54,41.91A8.91,8.91,0,0,0,35,40.19c-2.69,1.05-5.29,2.81-4,5.52,2.36,5,12.54,3.08,12.54,3.08S48.47,45.75,44.54,41.91Z"/><path class="cls-1" d="M20.61,46.94s-6.56,22.6,7.48,33.15c21.57,16.2,41.46,3.31,41.46,3.31"/></g></svg>