<svg xmlns="http://www.w3.org/2000/svg" viewBox="0 0 100 100"><defs><style>.cls-1{fill:#37474f;}.cls-2{fill:#fff;}.cls-3{fill:#91cb55;}.cls-4{fill:none;stroke:#344154;stroke-linecap:round;stroke-linejoin:round;stroke-width:1.5px;}</style></defs><title>icon_vertical_club</title><g id="Layer_1" data-name="Layer 1"><path class="cls-1" d="M59.14,68.12a.9.9,0,0,1-.33-1.73l7.51-3c2.64-1.18,6.94-3.1,6.94-9.46V46a6.15,6.15,0,0,0-8.55-5.65l-5.22,2.23a.89.89,0,0,1-1.17-.48.88.88,0,0,1,.47-1.17L64,38.67a7.94,7.94,0,0,1,11,7.3v8c0,7.53-5.35,9.92-7.92,11.06l-7.66,3A1,1,0,0,1,59.14,68.12Z"/><path class="cls-2" d="M19.11,33.16H60a0,0,0,0,1,0,0V65.55a18,18,0,0,1-18,18H37.15a18,18,0,0,1-18-18V33.16a0,0,0,0,1,0,0Z"/><path class="cls-1" d="M42,84.5H37.15a19,19,0,0,1-18.94-19V33.16a.9.9,0,0,1,.9-.9H60a.9.9,0,0,1,.9.9V65.55A19,19,0,0,1,42,84.5ZM20,34.06V65.55A17.17,17.17,0,0,0,37.15,82.7H42A17.17,17.17,0,0,0,59.12,65.55V34.06Z"/><rect class="cls-3" x="19.11" y="41.72" width="40.91" height="7.96"/><path class="cls-1" d="M60,50.59H19.11a.9.9,0,0,1-.9-.9v-8a.89.89,0,0,1,.9-.89H60a.89.89,0,0,1,.9.89v8A.9.9,0,0,1,60,50.59Zm-40-1.8H59.12V42.62H20Z"/><path class="cls-1" d="M32.12,80.14a.94.94,0,0,1-.5-.15c-1.72-1.17-7.35-5.53-7.35-12.77V38.08a.9.9,0,1,1,1.79,0V67.22c0,5,3.39,9.14,6.57,11.28a.91.91,0,0,1,.24,1.25A.92.92,0,0,1,32.12,80.14Z"/><path class="cls-1" d="M79.76,30.65c-3.49,0-6.66-1.66-9.45-4.94C68,23,65.47,21.59,62.82,21.59c-4.56,0-8.09,4.08-8.12,4.12a.9.9,0,1,1-1.37-1.16c.17-.19,4.11-4.76,9.49-4.76,3.2,0,6.18,1.6,8.86,4.76,2.55,3,5.46,4.44,8.57,4.29a13.42,13.42,0,0,0,8.46-4.16.88.88,0,0,1,1.19-.37.91.91,0,0,1,.39,1.22,14.8,14.8,0,0,1-9.16,5A12.73,12.73,0,0,1,79.76,30.65Z"/><path class="cls-1" d="M80.13,20.59a12.77,12.77,0,0,1-7.95-3,.89.89,0,1,1,1.1-1.41,10.7,10.7,0,0,0,8.46,2.44,12.48,12.48,0,0,0,7-3.72.88.88,0,0,1,1.19-.38.93.93,0,0,1,.39,1.23c-.38.76-3.35,3.56-7.46,4.49A12.57,12.57,0,0,1,80.13,20.59Z"/><path class="cls-1" d="M38.9,26.12a.94.94,0,0,1-.5-.15.9.9,0,0,1-.25-1.24,44,44,0,0,1,3.39-4.36.91.91,0,0,1,1.27-.08.89.89,0,0,1,.08,1.26,45.22,45.22,0,0,0-3.24,4.16A.92.92,0,0,1,38.9,26.12Zm5.78-6.88a.9.9,0,0,1-.63-1.54C47.84,14,53.72,9.5,60.19,9.5a.93.93,0,0,1,.94.9.86.86,0,0,1-.85.89c-6,0-11.42,4.18-15,7.69A.91.91,0,0,1,44.68,19.24Zm23.16-5.55a.88.88,0,0,1-.49-.15,14,14,0,0,0-2.2-1.2.9.9,0,1,1,.71-1.65A16.27,16.27,0,0,1,68.34,12a.89.89,0,0,1,.25,1.24A.91.91,0,0,1,67.84,13.69Z"/><path class="cls-4" d="M60,49.69l4.93-2.53A2,2,0,0,1,67.88,49v5.6a2.79,2.79,0,0,1-1.59,2.52L60.17,60"/></g></svg>