<svg xmlns="http://www.w3.org/2000/svg" viewBox="0 0 100 100"><defs><style>.cls-1{fill:#fff;stroke:#344154;stroke-linecap:round;stroke-linejoin:round;stroke-width:1.5px;}.cls-2{fill:#91cb55;}</style></defs><title>icon_vertical_ NP</title><g id="Layer_1" data-name="Layer 1"><path class="cls-1" d="M82.41,54.6a31.2,31.2,0,0,0,5.74-18c0-.21-1.33-19.28-21.26-20.82h0c-8.25,0-12.74,3.26-15,5.19a33.21,33.21,0,0,0-11.24-5,24.52,24.52,0,0,0-14.84,1C12.23,22.41,12.17,36.17,12.17,36.33c0,7.59,6.43,15.65,6.7,16a1.38,1.38,0,0,0,1,.48l-1.41,1.39A7.64,7.64,0,0,0,16.77,57a6,6,0,0,0,1.69,6.38,6.15,6.15,0,0,0,5.24,2,6.14,6.14,0,0,0,2,5.24,6.12,6.12,0,0,0,5.25,2,6.11,6.11,0,0,0,1.94,5.24,6.29,6.29,0,0,0,4.48,2Z"/><path class="cls-1" d="M19.76,53.21,36.25,37.37l7.27-7L54,40.79a6.5,6.5,0,0,0,9.19-9.19L52.22,21s-18-15.06-33.67.64C4.61,35.59,19.76,53.21,19.76,53.21Z"/><path class="cls-1" d="M48.28,84.22c-.61.59-3.84,3.4-7.25,0A4.89,4.89,0,0,1,41,77h0l1.54-1.54a9.14,9.14,0,0,0,1.17,1.45l5.93,5.94Z"/><path class="cls-1" d="M61.13,86.76a4.82,4.82,0,0,1-3.44,1.65,6.19,6.19,0,0,1-3.81-1.66l-10-10a6.25,6.25,0,0,1-1.48-2.54,1.29,1.29,0,0,0-.06-.25,4.64,4.64,0,0,1,1.54-4.45,4.85,4.85,0,0,1,3.44-1.65,6.27,6.27,0,0,1,3.81,1.65l10,10A4.87,4.87,0,0,1,61.13,86.76Z"/><path class="cls-1" d="M68.43,79.46A4.85,4.85,0,0,1,65,81.11a6.26,6.26,0,0,1-3.8-1.65l-10-10c-.59-.61-3.4-3.84,0-7.25a4.84,4.84,0,0,1,3.44-1.65,6.22,6.22,0,0,1,3.78,1.63l0,0,10,10C69,72.82,71.83,76.06,68.43,79.46Z"/><path class="cls-1" d="M75.91,72a4.84,4.84,0,0,1-3.44,1.65A6.3,6.3,0,0,1,68.66,72l-10-10a4.87,4.87,0,0,1,0-7.24,4.81,4.81,0,0,1,3.44-1.66,6.15,6.15,0,0,1,3.79,1.65h0l10,10C76.5,65.34,79.31,68.58,75.91,72Z"/><path class="cls-1" d="M83.11,64.78a4.82,4.82,0,0,1-3.44,1.65,6.25,6.25,0,0,1-3.81-1.66l-10-10c-.59-.61-3.4-3.85,0-7.25a4.85,4.85,0,0,1,3.44-1.65,6.23,6.23,0,0,1,3.82,1.66l10,10C83.7,58.14,86.52,61.37,83.11,64.78Z"/><line class="cls-1" x1="23.38" y1="64.94" x2="38.92" y2="51.08"/><line class="cls-1" x1="30.52" y1="72.93" x2="46.07" y2="58.43"/><rect class="cls-2" x="54.4" y="80.83" width="6.62" height="5.65" rx="2.74" transform="translate(-42.25 65.31) rotate(-45)"/><rect class="cls-2" x="61.82" y="73.41" width="6.62" height="5.65" rx="2.74" transform="translate(-34.83 68.38) rotate(-45)"/><rect class="cls-2" x="69.42" y="65.81" width="6.62" height="5.65" rx="2.74" transform="translate(-27.23 71.53) rotate(-45)"/><rect class="cls-2" x="76.61" y="58.62" width="6.62" height="5.65" rx="2.74" transform="translate(-20.04 74.51) rotate(-45)"/><path class="cls-2" d="M62.57,39.13l-1.51,1.35c-1.05,1.05-4.21.83-5.26-.22h0c-1-1.06-1.72-2.53-.1-4l2.76-2.77a2.72,2.72,0,0,1,3.83,0h0A4.71,4.71,0,0,1,62.57,39.13Z"/><path class="cls-2" d="M40.46,29.46,20.39,49s-5.19-4.43-5-10.5C15.37,38.48,23.07,45.37,40.46,29.46Z"/></g></svg>