<svg xmlns="http://www.w3.org/2000/svg" viewBox="0 0 100 100"><defs><style>.cls-1{fill:#fff;}.cls-1,.cls-3{stroke:#344154;stroke-linecap:round;stroke-linejoin:round;stroke-width:1.5px;}.cls-2{fill:#91cb55;}.cls-3{fill:none;}</style></defs><title>icon_vertical_ memorial</title><g id="Layer_1" data-name="Layer 1"><path class="cls-1" d="M82.32,79.86l-20.7-15c29.77-27.4,10.21-42.39,10.21-42.39S70.55,8,49.7,8s-21.27,15-21.27,15C14,41,32.69,56.9,32.69,56.9L69.73,92,69.27,79ZM49.39,54.37S31.13,37.45,28.82,24c0,0,18.48-11.87,42.37,0C71.19,24,66.45,43.14,49.39,54.37Z"/><polygon class="cls-1" points="18.23 79.56 40.04 63.87 51.12 74.39 30.7 92.04 31.55 79.56 18.23 79.56"/><polygon class="cls-2" points="34.67 76.74 34.67 85.05 47.37 74.06 43.88 70.58 34.67 76.74"/><path class="cls-2" d="M58.48,58.26l3.14,2.67s19.76-17,12-32.68C73.62,28.25,78.43,40,58.48,58.26Z"/><path class="cls-3" d="M48.22,53.24S59.08,63.66,62.88,65.76"/></g></svg>