<svg xmlns="http://www.w3.org/2000/svg" viewBox="0 0 100 100"><defs><style>.cls-1{fill:#fff;stroke:#344154;stroke-linecap:round;stroke-linejoin:round;stroke-width:1.5px;}.cls-2{fill:#91cb55;}</style></defs><title>icon_vertical_ pets</title><g id="Layer_1" data-name="Layer 1"><path class="cls-1" d="M28.08,75.3C7.08,40,42.67,13.5,42.67,13.5H63.44S99,40,78,75.3"/><polyline class="cls-1" points="32.6 27.99 27.15 17.36 39.85 9.71 43.16 15.16"/><path class="cls-1" d="M44.28,17h0L39.85,9.71a3.7,3.7,0,0,0-5-1.3,105.57,105.57,0,0,0-9.26,5.85,4.27,4.27,0,0,0-1.5,4.9l2,5.69s6-5.7,8.23-9.27"/><polyline class="cls-1" points="74.33 28.92 78.95 17.36 66.25 9.71 62.95 15.16"/><path class="cls-1" d="M61.83,17h0l4.42-7.29a3.7,3.7,0,0,1,5-1.3,105.64,105.64,0,0,1,9.27,5.85,4.28,4.28,0,0,1,1.5,4.9L80,24.85s-6-5.7-8.22-9.27"/><ellipse class="cls-1" cx="53.05" cy="67.97" rx="8.45" ry="6.44"/><path class="cls-1" d="M40.54,31.58,42.78,48l-.23,10a11.55,11.55,0,0,0,1.2,10.49h0c2,2.67,5,2.93,7.24.63l2.06-2.14,2.07,2.14c2.21,2.3,5.22,2,7.24-.63h0A11.55,11.55,0,0,0,63.55,58l-.22-10,2.24-16.38"/><path class="cls-1" d="M56.22,62.13A3.17,3.17,0,1,1,53.05,59,3.17,3.17,0,0,1,56.22,62.13Z"/><path class="cls-1" d="M45.31,37.64a.29.29,0,0,1-.28.28.28.28,0,0,1,0-.56A.29.29,0,0,1,45.31,37.64Z"/><circle class="cls-1" cx="61.08" cy="37.64" r="0.28"/><path class="cls-1" d="M25.89,41.78s-13.52,4-10.32,26.4l4.92-2.88s-4.1,5,3.5,15.63l1.9-2.85S31.23,84.89,31.23,90c0,0,9.26-5.23,7.47-15.6"/><path class="cls-1" d="M80.21,41.78s13.52,4,10.32,26.4L85.62,65.3s4.09,5-3.5,15.63l-1.91-2.85S74.87,84.89,74.87,90c0,0-9.25-5.23-7.47-15.6"/><path class="cls-2" d="M67.39,37.92l-.22,13.19s5.26,16.38.22,16.86C67.39,68,84.53,70.39,67.39,37.92Z"/><path class="cls-2" d="M38.07,37.92l.22,13.19S33,67.49,38.07,68C38.07,68,20.93,70.39,38.07,37.92Z"/></g></svg>