<svg xmlns="http://www.w3.org/2000/svg" viewBox="0 0 100 100"><defs><style>.cls-1{fill:none;stroke:#344154;stroke-linecap:round;stroke-linejoin:round;stroke-width:1.5px;}.cls-2{fill:#91cb55;}</style></defs><title>icon_vertical_ sport</title><g id="Layer_1" data-name="Layer 1"><circle class="cls-1" cx="48.47" cy="51.72" r="37.34" transform="translate(-22.37 49.42) rotate(-45)"/><path class="cls-1" d="M70.15,21.32s-23.09,5.23-2,34.4c5.07,7,8.23,13.19,9.08,19.78"/><path class="cls-1" d="M26.78,21.32s23.09,5.23,2,34.4c-5.08,7-8.24,13.19-9.09,19.78"/><line class="cls-1" x1="48.47" y1="14.38" x2="48.47" y2="89.06"/><path class="cls-1" d="M11.58,45.92a68.9,68.9,0,0,1,73.86,0"/><path class="cls-2" d="M52.05,85.28a33.65,33.65,0,0,0,21.4-10.86A35.23,35.23,0,0,0,68.69,63a63.93,63.93,0,0,1-16.64,3.18Z"/><path class="cls-2" d="M81.82,56.85h0a62.32,62.32,0,0,1-6.38,3.42,48.92,48.92,0,0,1,3.23,6.56A34,34,0,0,0,81.82,56.85Z"/><path class="cls-2" d="M23.48,74.42a33.65,33.65,0,0,0,21.4,10.86V66.14A63.93,63.93,0,0,1,28.24,63,35.23,35.23,0,0,0,23.48,74.42Z"/><path class="cls-2" d="M15.11,56.85a34,34,0,0,0,3.17,10,48.92,48.92,0,0,1,3.23-6.56,64.34,64.34,0,0,1-6.38-3.42Z"/></g></svg>