<svg xmlns="http://www.w3.org/2000/svg" viewBox="0 0 100 100"><defs><style>.cls-1{fill:#fff;stroke:#344154;stroke-linecap:round;stroke-linejoin:round;stroke-width:1.5px;}.cls-2{fill:#91cb55;}</style></defs><title>icon_vertical_ LGBT</title><g id="Layer_1" data-name="Layer 1"><circle class="cls-1" cx="32.34" cy="31.39" r="9.13" transform="translate(-2.76 59.65) rotate(-82.98)"/><line class="cls-1" x1="32.34" y1="44.76" x2="32.34" y2="57.96"/><path class="cls-1" d="M10.21,78.79V55c0-5.66,3-10.25,8.68-10.25h26.9"/><circle class="cls-1" cx="67" cy="31.39" r="9.13" transform="translate(27.66 94.05) rotate(-82.98)"/><line class="cls-1" x1="66.22" y1="44.76" x2="66.22" y2="57.96"/><path class="cls-1" d="M45.79,44.76h0c5.66,0,8.68,4.59,8.68,10.25V78.79H78.53V60.39"/><path class="cls-1" d="M20,60.39v18.4h24V55c0-5.66,3-10.25,8.69-10.25H79.66"/><path class="cls-1" d="M79.66,44.76h0c5.66,0,8.69,4.59,8.69,10.25V78.79"/><path class="cls-2" d="M23.81,60v14.9H35.16S23.81,71.91,23.81,60Z"/><path class="cls-2" d="M57.87,60v14.9H69.23S57.87,71.91,57.87,60Z"/><path class="cls-2" d="M26.74,27.27S28.06,25,32.07,25s7,2.72,7,6.43a6.45,6.45,0,0,0-5.28-2.24C30.26,29.3,26.6,30.66,26.74,27.27Z"/><path class="cls-2" d="M61.26,27.27S62.58,25,66.59,25s7,2.72,7,6.43a6.45,6.45,0,0,0-5.28-2.24C64.78,29.3,61.11,30.66,61.26,27.27Z"/></g></svg>