<svg xmlns="http://www.w3.org/2000/svg" viewBox="0 0 100 100"><defs><style>.cls-1{fill:none;stroke:#344154;stroke-linecap:round;stroke-linejoin:round;stroke-width:1.5px;}.cls-2{fill:#91cb55;}</style></defs><title>icon_vertical_ medical</title><g id="Layer_1" data-name="Layer 1"><path class="cls-1" d="M59,48.1H51.61V40.69a3.83,3.83,0,0,0-7.66,0V48.1H36.57a3.82,3.82,0,1,0,0,7.64H44v7.39a3.83,3.83,0,0,0,7.66,0V55.74H59a3.82,3.82,0,1,0,0-7.64Z"/><path class="cls-1" d="M12.69,38.57a17.78,17.78,0,0,1,33.12-9,2.88,2.88,0,0,0,4.94,0,17.78,17.78,0,0,1,33.11,9C83.86,58.4,55.21,78.45,48.27,83,41.34,78.45,12.69,58.4,12.69,38.57Z"/><path class="cls-2" d="M78.17,33s12.07,16.1-29.89,45.81l-9.1-6.44S79.78,62.36,78.17,33Z"/><path class="cls-2" d="M35.84,25.53s-10.86-3-17,5,2.56,21.34,2.56,21.34S16.71,30.18,35.84,25.53Z"/></g></svg>