<svg xmlns="http://www.w3.org/2000/svg" viewBox="0 0 100 100"><defs><style>.cls-1{fill:#91cb55;}.cls-1,.cls-2{stroke:#344154;stroke-linecap:round;stroke-linejoin:round;stroke-width:1.5px;}.cls-2{fill:#fff;}</style></defs><title>icon_vertical_ kids</title><g id="Layer_1" data-name="Layer 1"><path class="cls-1" d="M59,83.74H11.69l1.25-19.18a9.35,9.35,0,0,1,5.2-7.64L25,53.58a18.21,18.21,0,0,0,20.77,0l6.82,3.34a9.35,9.35,0,0,1,5.2,7.64Z"/><line class="cls-2" x1="28.45" y1="71.61" x2="42.23" y2="71.61"/><path class="cls-2" d="M42.23,52.2,41,48.82H29.66L28.45,52.2,25,53.58c1.95,6.08,10.38,6.14,10.38,6.14s8.44-.06,10.39-6.14Z"/><path class="cls-2" d="M22.65,31c0,13.11,5.52,18.92,11,18.92H37c2.08,0,11-2.15,11-18.92,0-16.47-25.38-16-25.38,0"/><path class="cls-2" d="M37.23,28.28a19.1,19.1,0,0,1-14.42,6.08S9.54,17.81,34.2,15.26H52.35C55.43,18.59,46.89,31,37.23,28.28Z"/><line class="cls-2" x1="51.53" y1="20.77" x2="41.65" y2="20.77"/><polyline class="cls-1" points="20.22 83.74 21.02 69.24 23.32 69.24"/><polyline class="cls-1" points="50.47 83.74 49.67 69.24 47.36 69.24"/><line class="cls-2" x1="28.42" y1="35.85" x2="31.41" y2="35.85"/><line class="cls-2" x1="40.36" y1="35.85" x2="43.35" y2="35.85"/><path class="cls-2" d="M40.14,42.35c0,2.26-1.84,2.84-4.19,2.84s-4.32-.58-4.32-2.84"/><line class="cls-2" x1="34.62" y1="40.18" x2="37.07" y2="40.18"/><path class="cls-1" d="M69.47,18.75C53.09,16.51,48.26,32.31,58.82,43h21.3C90.66,32.33,85.88,16.5,69.47,18.75Z"/><path class="cls-1" d="M57.15,39.24s-3.53,10.5-6.43,12.65c0,0,5.19,7,19,6.22L69.47,38Z"/><path class="cls-1" d="M82.25,39.24,69.93,38,69.7,58.11c13.8.75,19-6.22,19-6.22C85.78,49.74,82.25,39.24,82.25,39.24Z"/><path class="cls-2" d="M73.85,57.45l-1-5.3h-6.7l-1,5.3a16.1,16.1,0,0,0-4,.94s1.82,9.43,8.42,9.43,8.42-9.43,8.42-9.43A16.1,16.1,0,0,0,73.85,57.45Z"/><path class="cls-2" d="M87.06,90H51.9c-3.79-15.62-.07-28,9.16-31.61,0,0,1.82,9.43,8.42,9.43s8.42-9.43,8.42-9.43C87.13,62,90.85,74.38,87.06,90Z"/><path class="cls-2" d="M80.89,37.48c0,15.08-8,17-9.88,17H68c-4.93,0-9.9-5.23-9.9-17l11.42-6.73,11.42,6.73"/><line class="cls-2" x1="58.87" y1="90" x2="58.08" y2="71.96"/><line class="cls-2" x1="80.88" y1="71.96" x2="80.24" y2="90"/><path class="cls-2" d="M72.64,48.07A3.34,3.34,0,0,1,66.3,48"/><path class="cls-1" d="M65.36,26.79s2.11,9.47,15.53,10.69a16.11,16.11,0,0,0,.53-3.24"/><path class="cls-1" d="M65.09,25.7c.06,1.32,2.38,5.73,2.38,5.73-3.37,4.77-9.42,6-9.42,6a17.86,17.86,0,0,1-.81-5"/><path class="cls-2" d="M72.92,41.39S75,38,78.53,40.69"/><path class="cls-2" d="M66,41.39S64,38,60.43,40.69"/><line class="cls-2" x1="69.47" y1="74.88" x2="69.7" y2="84.17"/></g></svg>