<svg xmlns="http://www.w3.org/2000/svg" viewBox="0 0 100 100"><defs><style>.cls-1{fill:#91cb55;}.cls-2{fill:#37474f;}.cls-3{fill:#ebeff2;}.cls-4{fill:#fff;}</style></defs><title>icon_vertical_ fun</title><g id="Layer_1" data-name="Layer 1"><path class="cls-1" d="M59.47,58.52A27,27,0,1,1,41.69,24.74,27,27,0,0,1,59.47,58.52Z"/><path class="cls-2" d="M33.68,78.32A27.8,27.8,0,1,1,60.24,58.76,27.74,27.74,0,0,1,33.68,78.32Zm0-54a26.21,26.21,0,1,0,7.75,1.18A26.24,26.24,0,0,0,33.71,24.33Z"/><path class="cls-3" d="M52.71,56.42A19.91,19.91,0,1,1,39.6,31.5,19.91,19.91,0,0,1,52.71,56.42Z"/><path class="cls-2" d="M33.68,71.24a20.71,20.71,0,1,1,19.8-14.58h0A20.77,20.77,0,0,1,33.68,71.24Zm0-39.83A19.11,19.11,0,1,0,52,56.19h0A19.12,19.12,0,0,0,33.7,31.41Z"/><path class="cls-1" d="M46.28,54.43A13.18,13.18,0,1,1,37.6,37.94,13.18,13.18,0,0,1,46.28,54.43Z"/><path class="cls-2" d="M33.69,64.5A14,14,0,1,1,47,54.67,13.88,13.88,0,0,1,33.69,64.5Zm0-26.36a12.38,12.38,0,1,0,11.83,16h0A12.39,12.39,0,0,0,37.36,38.7,12.59,12.59,0,0,0,33.68,38.14Z"/><path class="cls-3" d="M40.59,52.66a7.22,7.22,0,1,1-4.76-9A7.23,7.23,0,0,1,40.59,52.66Z"/><path class="cls-2" d="M33.7,58.55a8,8,0,1,1,2.37-15.69A8,8,0,0,1,33.7,58.55Zm0-14.45a6.42,6.42,0,0,0-1.91,12.55,6.41,6.41,0,0,0,8-4.23h0a6.42,6.42,0,0,0-4.22-8A6.26,6.26,0,0,0,33.7,44.1Z"/><path class="cls-4" d="M35.64,51.12a2,2,0,1,1-3.89-1.2,2,2,0,0,1,2.55-1.34,2.07,2.07,0,0,1,.82.49A2,2,0,0,1,35.64,51.12Z"/><path class="cls-2" d="M33.69,53.36a2.72,2.72,0,0,1-.84-.13,2.84,2.84,0,1,1,1.69-5.42,2.89,2.89,0,0,1,1.14.68,2.83,2.83,0,0,1,.72,2.87h0A2.83,2.83,0,0,1,33.69,53.36Zm0-4.07a1.23,1.23,0,0,0-.36,2.41,1.23,1.23,0,0,0,1.54-.81h0a1.21,1.21,0,0,0-.32-1.25,1.18,1.18,0,0,0-.49-.3A1.57,1.57,0,0,0,33.69,49.29Z"/><path class="cls-2" d="M35.78,51a.8.8,0,0,1,0-1.6l10.51-.3a.81.81,0,1,1,0,1.61L35.8,51Z"/><path class="cls-3" d="M68.84,49.14c.11,3.93-13.63,5-16.27,5.07s-6.21-1.87-6.28-4.38,3.4-4.64,6-4.71S68.74,45.21,68.84,49.14Z"/><path class="cls-2" d="M52.43,55A8.45,8.45,0,0,1,48,53.66a4.84,4.84,0,0,1-2.55-3.81A4.31,4.31,0,0,1,46.8,46.8a8.41,8.41,0,0,1,5.51-2.48,93.09,93.09,0,0,1,10.9.51c6.5.74,6.38,2.1,6.44,4.29h0c.06,2.18.26,3.7-6.19,4.79A93.14,93.14,0,0,1,52.59,55Zm.9-9.09h-1a6.77,6.77,0,0,0-4.38,2,2.79,2.79,0,0,0-.87,1.91,3.36,3.36,0,0,0,1.8,2.5,6.65,6.65,0,0,0,3.65,1.09,91.33,91.33,0,0,0,10.64-1.07c6-1,4.88-2.34,4.85-3.17h0c0-.83,1-2-5-2.73A92.62,92.62,0,0,0,53.33,45.92Z"/><polygon class="cls-4" points="92.51 58.81 84.99 48.55 91.81 37.83 79.62 38.3 72.72 48.88 72.71 48.89 80.14 59.28 92.51 58.81"/><path class="cls-2" d="M80.14,60.09a.8.8,0,0,1-.65-.34L72.06,49.36a.8.8,0,0,1-.08-.8l7-10.7a.82.82,0,0,1,.65-.36L91.79,37a.81.81,0,0,1,.72.41.78.78,0,0,1,0,.82L86,48.52l7.19,9.81a.8.8,0,0,1-.62,1.28l-12.37.48ZM73.68,48.87l6.87,9.6L91,58.05l-6.61-9a.82.82,0,0,1,0-.9l6-9.44-10.25.41Z"/><path class="cls-2" d="M68.85,50a.81.81,0,0,1,0-1.61L85,47.74a.83.83,0,0,1,.82.78.79.79,0,0,1-.78.83L68.87,50Z"/></g></svg>