<svg xmlns="http://www.w3.org/2000/svg" viewBox="0 0 100 100"><defs><style>.cls-1{fill:none;stroke:#344154;stroke-linecap:round;stroke-linejoin:round;stroke-width:1.5px;}.cls-2{fill:#91cb55;}</style></defs><title>icon_vertical_ disaster</title><g id="Layer_1" data-name="Layer 1"><path class="cls-1" d="M44,19,12.08,74.23a6.7,6.7,0,0,0,5.8,10H81.64a6.7,6.7,0,0,0,5.8-10L55.56,19A6.7,6.7,0,0,0,44,19Z"/><rect class="cls-1" x="48.76" y="68.6" width="3.51" height="4.47"/><path class="cls-1" d="M49.81,63l-5-27.62a1.43,1.43,0,0,1,1.41-1.68h7.22a1.44,1.44,0,0,1,1.43,1.66L50.56,63A.38.38,0,0,1,49.81,63Z"/><path class="cls-2" d="M38.82,37.25,16.21,76a2.72,2.72,0,0,0,2.35,4.09H41.88s-15.64-3.7-9.54-21.42S38.82,37.25,38.82,37.25Z"/></g></svg>